<svg id="visual" viewBox="0 0 900 600" width="900" height="600" xmlns="http://www.w3.org/2000/svg" xmlns:xlink="http://www.w3.org/1999/xlink" version="1.1"><rect x="0" y="0" width="900" height="600" fill="#001220"></rect><defs><linearGradient id="grad1_0" x1="33.3%" y1="0%" x2="100%" y2="100%"><stop offset="20%" stop-color="#001220" stop-opacity="1"></stop><stop offset="80%" stop-color="#001220" stop-opacity="1"></stop></linearGradient></defs><defs><linearGradient id="grad2_0" x1="0%" y1="0%" x2="66.7%" y2="100%"><stop offset="20%" stop-color="#001220" stop-opacity="1"></stop><stop offset="80%" stop-color="#001220" stop-opacity="1"></stop></linearGradient></defs><g transform="translate(900, 0)"><path d="M0 270.4C-50.3 265.1 -100.6 259.7 -135.2 234.2C-169.8 208.6 -188.8 162.9 -208.7 120.5C-228.6 78.1 -249.5 39.1 -270.4 0L0 0Z" fill="#3cfa85"></path></g><g transform="translate(0, 600)"><path d="M0 -270.4C42.3 -255.1 84.5 -239.7 126.5 -219.1C168.5 -198.5 210.2 -172.6 234.2 -135.2C258.1 -97.8 264.3 -48.9 270.4 0L0 0Z" fill="#3cfa85"></path></g></svg>