<svg id="visual" viewBox="0 0 900 600" width="900" height="600" xmlns="http://www.w3.org/2000/svg" xmlns:xlink="http://www.w3.org/1999/xlink" version="1.1"><rect x="0" y="0" width="900" height="600" fill="#001220"></rect><g fill="none" stroke="#A7233A" stroke-width="2"><circle r="61" cx="69" cy="106"></circle><circle r="26" cx="6" cy="358"></circle><circle r="43" cx="744" cy="450"></circle><circle r="43" cx="773" cy="299"></circle><circle r="36" cx="11" cy="503"></circle><circle r="45" cx="191" cy="532"></circle><circle r="28" cx="871" cy="103"></circle><circle r="52" cx="390" cy="116"></circle><circle r="51" cx="750" cy="585"></circle><circle r="53" cx="514" cy="329"></circle><circle r="46" cx="353" cy="479"></circle><circle r="45" cx="644" cy="47"></circle><circle r="34" cx="267" cy="373"></circle><circle r="59" cx="473" cy="571"></circle><circle r="36" cx="314" cy="236"></circle><circle r="54" cx="659" cy="355"></circle><circle r="49" cx="695" cy="186"></circle><circle r="25" cx="202" cy="101"></circle><circle r="49" cx="613" cy="563"></circle><circle r="49" cx="898" cy="594"></circle><circle r="39" cx="523" cy="190"></circle><circle r="34" cx="133" cy="349"></circle><circle r="39" cx="514" cy="22"></circle><circle r="35" cx="173" cy="226"></circle><circle r="28" cx="883" cy="369"></circle><circle r="26" cx="11" cy="219"></circle></g></svg>